<svg xmlns="http://www.w3.org/2000/svg" width="64" height="64" viewBox="0 0 64 64">
  <defs>
    <linearGradient id="prospectGradient" x1="0%" y1="100%" x2="100%" y2="0%">
      <stop offset="0%" style="stop-color:#165DFF"/>
      <stop offset="100%" style="stop-color:#4D8FFF"/>
    </linearGradient>
  </defs>
  <!-- 背景圆 -->
  <circle cx="32" cy="32" r="28" fill="url(#prospectGradient)"/>
  <!-- 星星和光芒 -->
  <g>
    <!-- 主星星 -->
    <path d="M32 12 L36 24 L48 24 L38 32 L42 44 L32 36 L22 44 L26 32 L16 24 L28 24 Z" fill="white"/>
    <!-- 光芒 -->
    <g stroke="#FF7D00" stroke-width="2" stroke-linecap="round">
      <line x1="32" y1="6" x2="32" y2="9"/>
      <line x1="32" y1="55" x2="32" y2="58"/>
      <line x1="6" y1="32" x2="9" y2="32"/>
      <line x1="55" y1="32" x2="58" y2="32"/>
      <line x1="13" y1="13" x2="15" y2="15"/>
      <line x1="49" y1="49" x2="51" y2="51"/>
      <line x1="13" y1="51" x2="15" y2="49"/>
      <line x1="49" y1="15" x2="51" y2="13"/>
    </g>
  </g>
</svg>